<svg width="512" height="512" viewBox="0 0 512 512" fill="none" xmlns="http://www.w3.org/2000/svg">
<path d="M500.692 481.958L500.036 481.791L486.548 427.857C485.516 423.727 482.777 420.23 479.015 418.239C474.462 415.828 390.064 371.89 312.028 380.202C371.726 349.137 459.915 365.979 461.056 366.206C469.179 367.826 477.079 362.562 478.705 354.438C480.329 346.315 475.061 338.414 466.938 336.789C465.218 336.445 424.289 328.412 376.698 332.555C322.255 337.289 281.069 356.22 255.999 387.732C230.93 356.22 189.744 337.29 135.301 332.555C87.7058 328.415 46.7803 336.446 45.0613 336.789C36.9425 338.413 31.6805 346.306 33.2975 354.426C34.9145 362.546 42.8094 367.819 50.9333 366.208C52.0802 365.98 140.272 349.137 199.971 380.203C121.936 371.892 37.5375 415.829 32.9845 418.24C29.2226 420.231 26.4836 423.728 25.4516 427.858L11.9638 481.792L11.3078 481.959C3.27892 484 -1.57502 492.162 0.464955 500.191C2.50493 508.219 10.6638 513.073 18.6977 511.034L186.141 468.472C199.618 494.079 226.189 510.495 255.998 510.495C285.808 510.495 312.38 494.079 325.856 468.472L493.299 511.034C494.539 511.348 495.781 511.5 497.005 511.5C503.702 511.499 509.807 506.979 511.532 500.191C513.575 492.161 508.721 483.999 500.692 481.958V481.958ZM320.745 436.217C313.029 434.257 305.133 438.659 302.743 446.247C296.289 466.732 277.505 480.495 256 480.495C234.496 480.495 215.712 466.732 209.258 446.247C206.868 438.659 198.974 434.254 191.256 436.217L44.9863 473.397L52.8732 441.861C78.7879 429.502 184.548 383.791 247.399 427.784C252.562 431.399 259.437 431.399 264.601 427.784C327.308 383.891 433.207 429.544 459.13 441.871L467.014 473.397L320.745 436.217Z" fill="white"/>
<path d="M427.998 66.5012H440.998V79.501C440.998 87.7849 447.714 94.5008 455.998 94.5008C464.282 94.5008 470.997 87.7849 470.997 79.501V66.5012H483.997C492.281 66.5012 498.997 59.7853 498.997 51.5014C498.997 43.2175 492.281 36.5016 483.997 36.5016H470.997V23.5017C470.997 15.2179 464.282 8.50195 455.998 8.50195C447.714 8.50195 440.998 15.2179 440.998 23.5017V36.5016H427.998C419.714 36.5016 412.998 43.2175 412.998 51.5014C412.998 59.7853 419.714 66.5012 427.998 66.5012Z" fill="white"/>
<path d="M426.228 225.653L330.229 265.652C322.584 268.838 318.967 277.62 322.154 285.267C324.554 291.028 330.13 294.501 336.005 294.501C337.928 294.501 339.883 294.129 341.769 293.343L437.768 253.344C445.414 250.158 449.031 241.376 445.844 233.729C442.657 226.083 433.875 222.464 426.228 225.653V225.653Z" fill="white"/>
<path d="M284.525 278.09C285.694 278.368 286.862 278.502 288.012 278.502C294.798 278.502 300.95 273.863 302.591 266.974L342.59 98.9758C344.509 90.9159 339.531 82.829 331.473 80.9101C323.41 78.9921 315.327 83.969 313.408 92.0269L273.408 260.025C271.489 268.084 276.466 276.171 284.525 278.09V278.09Z" fill="white"/>
<path d="M209.151 265.619C210.22 273.101 216.637 278.5 223.982 278.5C224.688 278.5 225.403 278.45 226.122 278.348C234.323 277.176 240.021 269.578 238.851 261.377L222.851 149.379C221.679 141.178 214.071 135.477 205.88 136.65C197.679 137.822 191.981 145.42 193.151 153.621L209.151 265.619Z" fill="white"/>
<path d="M53.3962 172.893C47.5383 178.75 47.5383 188.247 53.3962 194.105L149.395 290.104C152.324 293.033 156.163 294.498 160.001 294.498C163.839 294.498 167.679 293.033 170.607 290.104C176.465 284.247 176.465 274.749 170.607 268.891L74.608 172.893C68.752 167.036 59.2542 167.036 53.3962 172.893V172.893Z" fill="white"/>
<path d="M48.0033 94.5007C73.9189 94.5007 95.0026 73.417 95.0026 47.5013C95.0026 21.5857 73.9189 0.501953 48.0033 0.501953C22.0876 0.501953 1.00391 21.5857 1.00391 47.5013C1.00391 73.417 22.0876 94.5007 48.0033 94.5007V94.5007ZM48.0033 30.5015C57.3771 30.5015 65.003 38.1274 65.003 47.5013C65.003 56.8752 57.3771 64.5011 48.0033 64.5011C38.6294 64.5011 31.0035 56.8752 31.0035 47.5013C31.0035 38.1274 38.6294 30.5015 48.0033 30.5015V30.5015Z" fill="white"/>
<path d="M24.0038 286.5C32.2881 286.5 39.0038 279.784 39.0038 271.5C39.0038 263.215 32.2881 256.5 24.0038 256.5C15.7195 256.5 9.00378 263.215 9.00378 271.5C9.00378 279.784 15.7195 286.5 24.0038 286.5Z" fill="white"/>
<path d="M391.999 166.498C400.283 166.498 406.999 159.782 406.999 151.498C406.999 143.214 400.283 136.498 391.999 136.498C383.715 136.498 376.999 143.214 376.999 151.498C376.999 159.782 383.715 166.498 391.999 166.498Z" fill="white"/>
<path d="M256.001 78.5005C264.285 78.5005 271.001 71.7848 271.001 63.5005C271.001 55.2162 264.285 48.5005 256.001 48.5005C247.716 48.5005 241.001 55.2162 241.001 63.5005C241.001 71.7848 247.716 78.5005 256.001 78.5005Z" fill="white"/>
</svg>
